<svg width="121" height="51" viewBox="0 0 121 51" fill="none" xmlns="http://www.w3.org/2000/svg">
<path d="M40.7691 14.7633V14.7706L40.7637 14.7669L40.7691 14.7633Z" fill="white"/>
<path d="M40.7637 38.3124L40.7691 38.3087V38.316L40.7637 38.3124Z" fill="white"/>
<path d="M31.3383 37.0503L37.142 40.4034L20.3845 50.0783L0 38.3087V14.7696L20.3845 3L37.142 12.6749L31.3399 16.028L20.3845 9.7014L5.80369 18.1211V34.9572L20.3845 43.3753L31.3383 37.0503ZM11.9287 21.6568V31.4215L20.3845 36.3038L25.2165 33.5146L13.1429 26.5391L25.2165 19.5637L20.3845 16.7745L11.9287 21.6568ZM40.7644 14.7664L20.3845 26.5391L40.7644 38.3119L40.7691 38.3087V14.7696L40.7644 14.7664Z" fill="url(#paint0_linear_20_832)"/>
<path d="M40.7691 14.7633V14.7706L40.7637 14.7669L40.7691 14.7633Z" fill="white"/>
<path d="M40.7637 38.3124L40.7691 38.3087V38.316L40.7637 38.3124Z" fill="white"/>
<path d="M54.4062 21.3009L59.7154 5.38605H64.7678L70.236 21.3009H66.0057L63.7945 14.3475C63.4386 13.1868 63.0952 11.9536 62.7645 10.6464C62.4337 9.33916 62.0999 7.98471 61.766 6.58143H62.6101C62.2904 7.99101 61.9802 9.35019 61.6809 10.6558C61.3817 11.963 61.0651 13.1931 60.7297 14.3459L58.594 21.2993H54.4062V21.3009ZM58.016 17.9147V15.031H66.6357V17.9147H58.016Z" fill="white"/>
<path d="M77.9834 21.5151C76.5517 21.5151 75.265 21.1985 74.1216 20.5638C72.9782 19.9307 72.0726 19.0046 71.4033 17.7872C70.7339 16.5698 70.3984 15.0925 70.3984 13.3537C70.3984 11.615 70.7323 10.1172 71.4033 8.89977C72.0726 7.68234 72.9782 6.75627 74.1216 6.12314C75.265 5.49001 76.5517 5.17188 77.9834 5.17188C79.415 5.17188 80.6907 5.48844 81.8341 6.12314C82.9775 6.75785 83.8815 7.68234 84.5478 8.89977C85.214 10.1172 85.5463 11.6024 85.5463 13.3537C85.5463 15.1051 85.214 16.5792 84.5478 17.7966C83.8815 19.0141 82.9775 19.9386 81.8341 20.5686C80.6907 21.1985 79.4071 21.5135 77.9834 21.5135V21.5151ZM77.9834 18.2046C78.7519 18.2046 79.415 18.0187 79.9709 17.6486C80.5269 17.2785 80.9537 16.732 81.253 16.0091C81.5522 15.2862 81.7018 14.4011 81.7018 13.3553C81.7018 12.3095 81.5522 11.4118 81.253 10.6842C80.9537 9.95814 80.5269 9.41006 79.9709 9.03994C79.415 8.66983 78.7535 8.48399 77.9834 8.48399C77.2132 8.48399 76.5407 8.67141 75.9863 9.04467C75.4304 9.41793 75.0036 9.96759 74.7043 10.6905C74.4051 11.4134 74.2555 12.3017 74.2555 13.3553C74.2555 14.4089 74.4051 15.2846 74.7043 16.0044C75.0036 16.7241 75.4304 17.2706 75.9863 17.6439C76.5423 18.0171 77.2069 18.2046 77.9834 18.2046ZM76.8305 15.6311H79.8859L81.2419 17.3399L82.9082 19.2519L85.5683 22.553H82.1617L80.2922 20.3213L79.2355 18.7826L76.8321 15.6311H76.8305Z" fill="white"/>
<path d="M94.3522 21.504C93.0135 21.504 91.8402 21.2631 90.8322 20.7827C89.8243 20.3024 89.0415 19.622 88.4824 18.7432C87.9233 17.8643 87.6445 16.8328 87.6445 15.6515V5.38605H91.415V15.3413C91.415 15.8972 91.5394 16.3918 91.7882 16.8265C92.0371 17.2611 92.3804 17.6013 92.8182 17.847C93.2561 18.0927 93.7664 18.2156 94.3507 18.2156C94.935 18.2156 95.4484 18.0927 95.8941 17.847C96.3398 17.6013 96.6847 17.2611 96.9304 16.8265C97.1761 16.3918 97.299 15.8972 97.299 15.3413V5.38605H101.069V15.6515C101.069 16.8343 100.787 17.8643 100.225 18.7432C99.6629 19.622 98.8771 20.3024 97.8691 20.7827C96.8611 21.2631 95.6878 21.504 94.3491 21.504H94.3522Z" fill="white"/>
<path d="M102.166 21.3009L107.475 5.38605H112.528L117.996 21.3009H113.766L111.554 14.3475C111.198 13.1868 110.855 11.9536 110.524 10.6464C110.194 9.33916 109.86 7.98471 109.526 6.58143H110.37C110.049 7.99101 109.74 9.35019 109.441 10.6558C109.141 11.963 108.825 13.1931 108.489 14.3459L106.354 21.2993H102.166V21.3009ZM105.776 17.9147V15.031H114.395V17.9147H105.776Z" fill="white"/>
<path d="M55.1422 43.6226V27.7078H61.7428C62.924 27.7078 63.9178 27.8779 64.7226 28.2212C65.5274 28.563 66.1306 29.0354 66.5338 29.6371C66.9354 30.2387 67.137 30.9427 67.137 31.7459C67.137 32.3507 67.011 32.8909 66.7574 33.3634C66.5039 33.8375 66.1558 34.228 65.7101 34.5383C65.2644 34.8486 64.7541 35.0628 64.1777 35.184V35.3557C64.8108 35.3778 65.4014 35.5463 65.9448 35.8628C66.4897 36.1794 66.9275 36.6188 67.2583 37.1826C67.589 37.7449 67.7544 38.4111 67.7544 39.1797C67.7544 40.0349 67.5386 40.7956 67.1086 41.4649C66.6771 42.1343 66.0534 42.6619 65.2345 43.0462C64.4155 43.4305 63.4154 43.6226 62.2326 43.6226H55.1406H55.1422ZM58.9126 34.2658H61.1018C61.5223 34.2658 61.8971 34.195 62.2295 34.0516C62.5602 33.9099 62.8201 33.7052 63.0091 33.4374C63.198 33.1697 63.2925 32.8452 63.2925 32.4594C63.2925 31.9255 63.1004 31.5018 62.7161 31.1884C62.3318 30.875 61.8152 30.7191 61.1679 30.7191H58.9142V34.2658H58.9126ZM58.9126 40.5782H61.3475C62.1948 40.5782 62.8201 40.416 63.2217 40.0916C63.6233 39.7671 63.8249 39.3214 63.8249 38.7513C63.8249 38.3387 63.7288 37.978 63.5367 37.6724C63.3445 37.3669 63.0689 37.1291 62.7082 36.9622C62.3491 36.7952 61.9192 36.7117 61.4215 36.7117H58.911V40.5782H58.9126Z" fill="white"/>
<path d="M76.6826 43.8368C75.251 43.8368 73.9642 43.5202 72.8208 42.8855C71.6774 42.2524 70.7718 41.3263 70.1025 40.1089C69.4331 38.8915 69.0977 37.4142 69.0977 35.6754C69.0977 33.9367 69.4315 32.4389 70.1025 31.2215C70.7718 30.0041 71.6774 29.078 72.8208 28.4449C73.9642 27.8117 75.251 27.4936 76.6826 27.4936C78.1142 27.4936 79.3899 27.8102 80.5333 28.4449C81.6768 29.0796 82.5808 30.0041 83.247 31.2215C83.9132 32.4389 84.2455 33.9241 84.2455 35.6754C84.2455 37.4268 83.9132 38.9009 83.247 40.1184C82.5808 41.3358 81.6768 42.2603 80.5333 42.8903C79.3899 43.5202 78.1063 43.8352 76.6826 43.8352V43.8368ZM76.6826 40.5263C77.4512 40.5263 78.1142 40.3404 78.6702 39.9703C79.2261 39.6002 79.6529 39.0537 79.9522 38.3308C80.2514 37.6079 80.4011 36.7228 80.4011 35.677C80.4011 34.6313 80.2514 33.7335 79.9522 33.0059C79.6529 32.2799 79.2261 31.7318 78.6702 31.3617C78.1142 30.9916 77.4527 30.8057 76.6826 30.8057C75.9124 30.8057 75.2399 30.9931 74.6856 31.3664C74.1296 31.7397 73.7028 32.2893 73.4036 33.0122C73.1043 33.7351 72.9547 34.6234 72.9547 35.677C72.9547 36.7307 73.1043 37.6063 73.4036 38.3261C73.7028 39.0458 74.1296 39.5923 74.6856 39.9656C75.2415 40.3389 75.9061 40.5263 76.6826 40.5263Z" fill="white"/>
<path d="M93.3701 43.8368C91.9385 43.8368 90.6517 43.5202 89.5083 42.8855C88.3649 42.2524 87.4593 41.3263 86.79 40.1089C86.1206 38.8915 85.7852 37.4142 85.7852 35.6754C85.7852 33.9367 86.119 32.4389 86.79 31.2215C87.4593 30.0041 88.3649 29.078 89.5083 28.4449C90.6517 27.8117 91.9385 27.4936 93.3701 27.4936C94.8017 27.4936 96.0774 27.8102 97.2208 28.4449C98.3643 29.0796 99.2683 30.0041 99.9345 31.2215C100.601 32.4389 100.933 33.9241 100.933 35.6754C100.933 37.4268 100.601 38.9009 99.9345 40.1184C99.2683 41.3358 98.3643 42.2603 97.2208 42.8903C96.0774 43.5202 94.7939 43.8352 93.3701 43.8352V43.8368ZM93.3701 40.5263C94.1387 40.5263 94.8017 40.3404 95.3577 39.9703C95.9136 39.6002 96.3405 39.0537 96.6397 38.3308C96.9389 37.6079 97.0886 36.7228 97.0886 35.677C97.0886 34.6313 96.9389 33.7335 96.6397 33.0059C96.3405 32.2799 95.9136 31.7318 95.3577 31.3617C94.8017 30.9916 94.1403 30.8057 93.3701 30.8057C92.6 30.8057 91.9274 30.9931 91.3731 31.3664C90.8171 31.7397 90.3903 32.2893 90.0911 33.0122C89.7918 33.7351 89.6422 34.6234 89.6422 35.677C89.6422 36.7307 89.7918 37.6063 90.0911 38.3261C90.3903 39.0458 90.8171 39.5923 91.3731 39.9656C91.929 40.3389 92.5937 40.5263 93.3701 40.5263Z" fill="white"/>
<path d="M102.841 43.6226V27.7078H108.716L110.746 33.9036C110.859 34.2816 110.99 34.7808 111.137 35.4045C111.283 36.0282 111.431 36.696 111.579 37.4079C111.729 38.1197 111.866 38.8064 111.99 39.4695C112.115 40.1325 112.217 40.7011 112.294 41.1783H111.579C111.658 40.7089 111.759 40.142 111.883 39.4805C112.008 38.8174 112.143 38.1292 112.29 37.4142C112.436 36.6991 112.581 36.0314 112.727 35.4108C112.874 34.7903 113.003 34.2895 113.118 33.9052L115.115 27.7093H121.001V43.6242H117.208V36.7669C117.208 36.4109 117.214 35.9526 117.23 35.3951C117.244 34.836 117.26 34.2296 117.277 33.5744C117.295 32.9193 117.314 32.2594 117.331 31.5932C117.348 30.927 117.358 30.3064 117.358 29.73H117.581C117.454 30.3631 117.306 31.0183 117.139 31.6955C116.972 32.3728 116.803 33.0311 116.636 33.6721C116.469 34.3131 116.309 34.9005 116.156 35.4345C116.003 35.9684 115.873 36.4141 115.765 36.77L113.501 43.6273H110.349L108.053 36.77C107.946 36.4219 107.815 35.9794 107.658 35.4455C107.5 34.9116 107.336 34.3241 107.166 33.6831C106.996 33.0421 106.824 32.3838 106.654 31.7066C106.483 31.0309 106.327 30.371 106.185 29.73H106.462C106.469 30.2923 106.48 30.9049 106.494 31.568C106.508 32.231 106.524 32.8925 106.541 33.5555C106.558 34.2186 106.577 34.8281 106.595 35.3872C106.612 35.9463 106.621 36.4078 106.621 36.77V43.6273H102.84L102.841 43.6226Z" fill="white"/>
<defs>
<linearGradient id="paint0_linear_20_832" x1="5.39692e-07" y1="21.2866" x2="34.0164" y2="43.5943" gradientUnits="userSpaceOnUse">
<stop stop-color="#8BEFD3"/>
<stop offset="1" stop-color="#377F7E"/>
</linearGradient>
</defs>
</svg>
