<svg width="603" height="569" viewBox="0 0 603 569" fill="none" xmlns="http://www.w3.org/2000/svg">
<path d="M22.11 174.922L26.1299 170.901H28.1399L44.2199 160.848L52.26 154.816H56.2799H60.3H68.3399H72.36L74.3699 156.827L76.3799 160.848H78.3899L80.4 158.837H84.4199L90.45 162.859L92.46 164.869H94.4699L96.4799 168.89L98.4899 170.901H100.5V166.88L102.51 164.869V162.859H104.52L108.54 160.848H110.55H112.56H114.57V158.837H116.58L118.59 156.827H120.6H122.61H124.62V154.816L126.63 152.806V144.763V142.753V140.742V138.731L128.64 136.721L130.65 132.7V128.678H128.64L126.63 126.668H124.62V124.657V118.625L126.63 116.615V114.604H128.64H130.65H132.66L134.67 116.615H136.68L138.69 114.604V112.594V108.572H136.68V106.562V104.551V98.5192V96.5091L134.67 94.4984H132.66V92.4877V90.477V88.4662V86.4561H134.67H136.68H138.69V84.4454H140.7L142.71 86.4561H144.72L146.73 84.4454L148.74 78.4133V76.4031H146.73H144.72V74.3924V66.3501L146.73 60.318L148.74 62.3287H150.75H152.76L154.77 60.318H156.78L158.79 62.3287L160.8 66.3501H162.81V68.3603H164.82H166.83L168.84 66.3501V64.3394V62.3287H170.85V58.3073L174.87 54.2864L176.88 52.2757L178.89 50.265V48.2543H180.9H182.91H184.92L190.95 52.2757H194.97H196.98H198.99H201H203.01L205.02 50.265L207.03 48.2543L209.04 46.2442V44.2334V40.212V38.2013L207.03 32.1697V30.159L209.04 28.1483V26.1382H211.05H215.07H217.08H221.1H223.11V28.1483L225.12 26.1382V14.0744H229.14H233.16L235.17 12.0637L237.18 10.053H239.19L241.2 8.04227L253.26 4.02144H257.28H259.29L263.31 2.01072L271.35 0H273.36H275.37L277.38 2.01072L279.39 6.03217V8.04227V12.0637V14.0744L281.4 16.0852L283.41 20.106L293.46 26.1382V28.1483V30.159V46.2442V50.265L295.47 52.2757L297.48 54.2864L301.5 56.2971H303.51V58.3073V60.318L299.49 68.3603L297.48 72.3817V74.3924V76.4031V78.4133L299.49 80.424H301.5H303.51H305.52L307.53 78.4133H309.54L317.58 80.424L321.6 82.4347H327.63H331.65H333.66V84.4454L337.68 92.4877L347.73 98.5192H349.74V96.5091V94.4984L351.75 92.4877H363.81L367.83 90.477V88.4662L369.84 86.4561V76.4031L371.85 72.3817H373.86L375.87 70.371L377.88 68.3603H379.89H381.9L383.91 66.3501H385.92L387.93 64.3394H389.94V62.3287V60.318H391.95V58.3073L389.94 56.2971V54.2864V52.2757L391.95 46.2442V44.2334V42.2227V40.212L393.96 32.1697L418.08 46.2442L422.1 50.265L424.11 52.2757L436.17 56.2971H440.19H442.2L444.21 54.2864V52.2757L448.23 42.2227L450.24 40.212V38.2013L452.25 36.1912L456.27 34.1804H458.28L460.29 32.1697V28.1483V26.1382V24.1274H464.31L468.33 22.1167H472.35H474.36L486.42 34.1804L488.43 36.1912H490.44H496.47V38.2013H498.48L510.54 60.318L512.55 62.3287L510.54 64.3394V68.3603L508.53 70.371L500.49 80.424L498.48 86.4561V88.4662L496.47 90.477V92.4877V94.4984L494.46 98.5192L490.44 106.562V108.572V110.583H492.45L494.46 112.594L496.47 116.615L508.53 124.657L512.55 130.689L524.61 136.721L536.67 142.753H542.7H546.72L548.73 140.742L550.74 138.731L554.76 134.71L556.77 132.7L558.78 128.678H560.79H562.8L566.82 130.689L586.92 138.731L596.97 140.742L598.98 142.753H600.99V144.763V146.774L598.98 148.784V150.795V152.806L600.99 164.869L603 174.922V178.943L598.98 184.975L596.97 188.996L594.96 191.007H592.95V193.018H590.94L588.93 195.028L586.92 197.039H584.91V199.049L582.9 201.06V203.071L590.94 227.198L603 233.23V235.24H598.98H596.97L594.96 239.261V249.314L584.91 251.325L578.88 253.336H576.87L572.85 255.346V257.357L568.83 259.367L566.82 263.389L564.81 265.399L562.8 267.41L560.79 271.431L550.74 279.473L548.73 281.484L546.72 283.495L540.69 293.548L538.68 295.558L536.67 297.569L534.66 299.579H532.65L528.63 301.59L516.57 303.601L512.55 307.622V309.632V311.643V313.654L510.54 315.664H508.53H506.52H504.51V313.654H502.5H498.48L494.46 317.675L492.45 319.685L490.44 323.707L488.43 325.717V327.728L486.42 331.749L480.39 335.77L476.37 337.781L470.34 341.802L468.33 343.813L466.32 345.823L464.31 341.802L462.3 339.791V337.781L460.29 339.791V341.802H458.28H456.27L446.22 337.781L438.18 339.791L436.17 341.802V347.834L434.16 349.844L432.15 351.855H430.14V353.866H424.11H422.1H420.09V355.876H418.08V357.887L416.07 363.919V365.929V367.94V371.961L418.08 375.982V377.993L416.07 380.003V382.014L414.06 384.025H410.04V388.046V392.067L414.06 410.162L416.07 414.184V416.194V418.205L414.06 428.258L416.07 432.279L414.06 440.321H412.05L410.04 444.343V450.374L408.03 458.417V462.438V464.449L418.08 482.544L420.09 486.565V498.629L418.08 502.65L416.07 506.671V508.682L414.06 510.692H416.07V512.703H418.08H420.09H422.1H424.11V514.714V526.777V528.788V530.798L422.1 532.809L418.08 538.841L414.06 540.851V542.862H412.05H408.03H406.02H404.01H402L393.96 546.883L391.95 548.894H385.92H383.91L381.9 550.904L377.88 552.915H375.87V554.926V556.936L373.86 560.957L371.85 562.968L369.84 564.979H367.83H365.82H363.81L361.8 562.968L351.75 556.936V554.926H349.74H347.73H345.72L343.71 556.936L341.7 558.947V560.957L339.69 562.968L337.68 564.979L329.64 569L313.56 548.894L303.51 540.851L293.46 522.756L289.44 520.745V518.735V516.724L291.45 510.692L285.42 506.671H281.4H279.39H277.38H273.36L271.35 504.661L267.33 498.629L265.32 494.608L267.33 488.576L265.32 486.565L263.31 484.555L261.3 482.544H259.29H257.28H255.27L253.26 484.555V486.565H251.25H249.24H243.21H241.2V484.555L229.14 470.48L225.12 458.417L219.09 446.353L211.05 428.258L215.07 426.247L217.08 424.237H223.11V422.226H225.12V420.215L227.13 416.194V414.184H229.14V412.173V410.162L231.15 408.152L229.14 404.131V402.12L231.15 400.109L229.14 398.099L221.1 388.046L217.08 380.003V377.993L215.07 373.972L213.06 371.961L203.01 361.908L201 359.897H198.99L196.98 361.908L194.97 363.919L192.96 365.929H190.95L188.94 359.897L184.92 357.887L178.89 361.908L174.87 365.929L170.85 367.94L166.83 365.929L160.8 361.908H158.79V359.897V357.887V355.876V353.866V347.834L160.8 343.813L164.82 333.76V329.738V321.696V319.685V317.675L162.81 315.664L160.8 313.654L158.79 311.643H156.78L152.76 309.632H148.74L142.71 311.643L140.7 307.622V305.611V303.601V301.59L142.71 297.569L144.72 295.558V293.548L142.71 291.537H140.7L138.69 293.548H136.68L134.67 295.558H132.66L130.65 293.548L126.63 291.537H124.62V289.526V287.516V285.505L122.61 283.495H120.6H118.59V285.505H116.58H114.57L112.56 287.516H110.55L108.54 285.505L86.4299 269.42L66.3299 265.399L64.3199 263.389L56.2799 259.367H52.26L48.2399 261.378H46.2299H44.2199V259.367V255.346L42.21 251.325L40.2 249.314L38.1899 245.293H36.1799L22.11 239.261H18.0899H16.0799H14.0699L2.00997 223.177V221.166L8.03988 215.134V213.124V211.113H6.02991L4.01994 209.102H2.00997H0V207.092V205.081L4.01994 195.028V193.018H6.02991L8.03988 191.007H10.05L12.06 186.986H14.0699V184.975L16.0799 180.954V178.943L22.11 174.922Z" fill="#404040"/>
</svg>
