<svg aria-hidden="true" style="position: absolute; width: 0; height: 0; overflow: hidden;" version="1.1" xmlns="http://www.w3.org/2000/svg">
    <defs>
        <symbol viewBox="0 0 12 12" id="tg">
            <path d="M0.858529 5.30116C3.9478 3.95522 6.0078 3.06789 7.03852 2.63917C9.98145 1.41511 10.593 1.20248 10.9915 1.19538C11.0792 1.19391 11.2752 1.21564 11.4022 1.31866C11.5094 1.40565 11.5389 1.52317 11.553 1.60564C11.5671 1.68812 11.5847 1.87601 11.5707 2.02282C11.4112 3.69847 10.7212 7.76483 10.3701 9.64159C10.2216 10.4357 9.92907 10.702 9.6459 10.728C9.03051 10.7847 8.56321 10.3213 7.96717 9.93064C7.03449 9.31925 6.50758 8.93866 5.60225 8.34206C4.55598 7.65259 5.23423 7.27364 5.8305 6.65434C5.98654 6.49226 8.69798 4.026 8.75046 3.80227C8.75702 3.77429 8.76311 3.66999 8.70115 3.61492C8.63919 3.55984 8.54774 3.57868 8.48174 3.59366C8.3882 3.61489 6.89823 4.5997 4.01183 6.54811C3.5889 6.83852 3.20583 6.98002 2.86261 6.9726C2.48424 6.96443 1.75641 6.75867 1.21534 6.58279C0.551693 6.36706 0.0242417 6.25301 0.0701708 5.88664C0.0940936 5.69581 0.35688 5.50065 0.858529 5.30116Z" fill="currentColor"/>
        </symbol>
        <symbol viewBox="0 0 13 12" id="wa">
            <path d="M6.52246 0.209717C8.03295 0.209717 9.47186 0.785096 10.5508 1.86401C11.6297 2.94292 12.2773 4.38188 12.2773 5.89233C12.2772 9.05702 9.68718 11.6462 6.52246 11.6462C5.58746 11.6462 4.65214 11.3581 3.78906 10.9265L0.768555 11.7185L1.55957 8.84155C1.05608 7.97842 0.768555 6.97061 0.768555 5.96362C0.768737 2.79901 3.35783 0.20982 6.52246 0.209717ZM4.61621 3.8064C4.54444 3.8064 4.48442 3.82994 4.43652 3.87769C4.38866 3.92555 4.36435 3.98563 4.36426 4.05737C4.36426 4.5568 4.47368 5.0504 4.69141 5.53784C4.90919 6.02535 5.21759 6.4693 5.61719 6.8689C6.01664 7.26834 6.45996 7.57692 6.94727 7.79468C7.43463 8.01239 7.92839 8.12176 8.42773 8.12183C8.49966 8.12183 8.56045 8.09751 8.6084 8.04956C8.65615 8.00166 8.67969 7.94165 8.67969 7.86987V6.89917C8.67969 6.84733 8.66178 6.80043 8.62598 6.75854C8.59007 6.71666 8.5441 6.68763 8.48828 6.67163L7.66113 6.50366C7.60522 6.49568 7.54814 6.50035 7.49023 6.51831C7.43235 6.53627 7.38556 6.56345 7.34961 6.59937L6.88184 7.04272C6.72999 6.95481 6.58606 6.8576 6.4502 6.75171C6.31439 6.64585 6.18437 6.53081 6.06055 6.40698C5.92877 6.27918 5.80807 6.14633 5.69824 6.00854C5.58836 5.87069 5.493 5.72768 5.41309 5.57983L5.89844 5.11304C5.93041 5.08107 5.95286 5.04274 5.96484 4.99878C5.97681 4.95484 5.97869 4.90056 5.9707 4.83667L5.81445 3.9978C5.80646 3.946 5.78107 3.90093 5.7373 3.86304C5.69335 3.82508 5.64286 3.8064 5.58691 3.8064H4.61621Z" fill="currentColor"/>
        </symbol>
    </defs>
</svg>
