<svg width="21" height="21" viewBox="0 0 21 21" fill="none" xmlns="http://www.w3.org/2000/svg">
    <path d="M9.08359 0.663997C9.39951 -0.221122 10.6513 -0.221122 10.9672 0.663997L13.0226 6.42253C13.1234 6.70503 13.3458 6.92734 13.6282 7.02818L19.3868 9.08359C20.2719 9.39951 20.2719 10.6513 19.3868 10.9672L13.6282 13.0226C13.3458 13.1234 13.1234 13.3458 13.0226 13.6282L10.9672 19.3868C10.6513 20.2719 9.39951 20.2719 9.08359 19.3868L7.02818 13.6282C6.92734 13.3458 6.70503 13.1234 6.42253 13.0226L0.663997 10.9672C-0.221122 10.6513 -0.221122 9.39951 0.663997 9.08359L6.42253 7.02818C6.70503 6.92734 6.92734 6.70503 7.02818 6.42253L9.08359 0.663997Z" fill="url(#paint0_linear_22_1518)"/>
    <defs>
        <linearGradient id="paint0_linear_22_1518" x1="-1.97461" y1="7.3477" x2="16.2251" y2="21.13" gradientUnits="userSpaceOnUse">
            <stop stop-color="#8BEFD3"/>
            <stop offset="1" stop-color="#377F7E"/>
        </linearGradient>
    </defs>
</svg>
